<?xml version="1.0" standalone="no"?>
<!DOCTYPE svg PUBLIC "-//W3C//DTD SVG 20010904//EN"
 "http://www.w3.org/TR/2001/REC-SVG-20010904/DTD/svg10.dtd">
<svg version="1.0" xmlns="http://www.w3.org/2000/svg"
 width="87.000000pt" height="87.000000pt" viewBox="0 0 87.000000 87.000000"
 preserveAspectRatio="xMidYMid meet">
<metadata>
Created by potrace 1.14, written by Peter Selinger 2001-2017
</metadata>
<g transform="translate(0.000000,87.000000) scale(0.100000,-0.100000)"
fill="#000000" stroke="none">
<path d="M70 435 l0 -435 360 0 360 0 0 330 0 330 -35 0 c-33 0 -35 2 -35 35
0 33 -2 35 -35 35 -33 0 -35 2 -35 35 0 33 -2 35 -35 35 -33 0 -35 2 -35 35
l0 35 -255 0 -255 0 0 -435z m370 225 l0 -140 140 0 140 0 0 -225 0 -225 -290
0 -290 0 0 365 0 365 150 0 150 0 0 -140z m140 105 c0 -33 2 -35 35 -35 33 0
35 -2 35 -35 0 -33 2 -35 35 -35 33 0 35 -2 35 -35 l0 -35 -105 0 -105 0 0
105 0 105 35 0 c33 0 35 -2 35 -35z"/>
<path d="M250 590 l0 -70 35 0 35 0 0 70 0 70 -35 0 -35 0 0 -70z"/>
<path d="M320 275 c0 -33 -2 -35 -35 -35 -33 0 -35 -2 -35 -35 0 -33 2 -35 35
-35 33 0 35 2 35 35 l0 35 110 0 110 0 0 -35 c0 -33 2 -35 35 -35 33 0 35 2
35 35 0 33 -2 35 -35 35 -33 0 -35 2 -35 35 l0 35 -110 0 -110 0 0 -35z"/>
</g>
</svg>
