<svg id="Layer_1" data-name="Layer 1" xmlns="http://www.w3.org/2000/svg" xmlns:xlink="http://www.w3.org/1999/xlink" width="290" height="254" viewBox="0 0 290 254">
  <defs>
    <style>
      .cls-1, .cls-2 {
        fill: #3e454c;
      }

      .cls-1, .cls-2, .cls-3 {
        stroke-miterlimit: 10;
      }

      .cls-1 {
        stroke: url(#linear-gradient);
      }

      .cls-2 {
        stroke: url(#linear-gradient-2);
      }

      .cls-3 {
        fill: url(#linear-gradient-3);
        stroke: url(#linear-gradient-4);
      }
    </style>
    <linearGradient id="linear-gradient" y1="100" x2="236" y2="100" gradientUnits="userSpaceOnUse">
      <stop offset="0" stop-color="#fff"/>
      <stop offset="1"/>
    </linearGradient>
    <linearGradient id="linear-gradient-2" x1="134.99" y1="190.5" x2="290" y2="190.5" xlink:href="#linear-gradient"/>
    <linearGradient id="linear-gradient-3" x1="143.5" y1="170.5" x2="143.5" y2="170.5" gradientUnits="userSpaceOnUse">
      <stop offset="0" stop-color="#bb0a3b"/>
      <stop offset="0.5" stop-color="#90c"/>
      <stop offset="1" stop-color="#f60"/>
    </linearGradient>
    <linearGradient id="linear-gradient-4" x1="143.5" y1="170.5" x2="143.5" y2="170.5" xlink:href="#linear-gradient"/>
  </defs>
  <title>artel-logo</title>
  <polygon class="cls-1" points="136 20 155 1 236 1 236 20 227 28 227 47 73 200 1 200 1 181 136 38 136 20"/>
  <polygon class="cls-2" points="136 183 163 209 191 208 235 254 290 253 290 226 200 129 164 128 137 155 136 183"/>
  <path class="cls-3" d="M0,0" transform="translate(1 -8)"/>
</svg>
